<svg xmlns="http://www.w3.org/2000/svg" width="100" height="66" viewBox="0 0 100 66"><g fill="none"><g fill="#505452" transform="translate(50 23.646)"><path d="M14.5876289.0519685039C14.0721649.0519685039 13.6340206.493700787 13.6340206 1.01338583L13.6340206 17.0976378C13.6340206 17.6173228 14.0721649 18.0590551 14.5876289 18.0590551 15.1030928 18.0590551 15.5412371 17.6173228 15.5412371 17.0976378L15.5412371 1.01338583C15.5412371.493700787 15.1030928.0519685039 14.5876289.0519685039zM3.91752577 9.48425197C3.63402062 9.04251969 3.04123711 8.91259843 2.60309278 9.1984252 2.16494845 9.48425197 2.03608247 10.0818898 2.31958763 10.523622L8.65979381 18.8905512C8.86597938 19.2023622 9.20103093 19.3582677 9.53608247 19.3322835 9.69072165 19.3322835 9.84536082 19.280315 9.9742268 19.176378 10.4123711 18.8905512 10.5412371 18.2929134 10.257732 17.8511811L3.91752577 9.48425197zM6.21134021 21.0992126L1.57216495 19.1503937C1.10824742 18.8905512.541237113 19.0464567.257731959 19.5141732-.57647287e-15 19.9818898.154639175 20.5535433.618556701 20.8393701L5.25773196 22.788189C5.41237113 22.8661417 5.56701031 22.9181102 5.72164948 22.9181102 6.05670103 22.9181102 6.36597938 22.7362205 6.54639175 22.4244094 6.82989691 21.9566929 6.64948454 21.3590551 6.21134021 21.0992126zM26.5721649 9.17244094C26.1340206 8.88661417 25.5412371 9.01653543 25.257732 9.45826772L18.9175258 17.8251969C18.6340206 18.2669291 18.7628866 18.8645669 19.2010309 19.1503937 19.3298969 19.2283465 19.4845361 19.280315 19.6391753 19.3062992 19.9742268 19.3322835 20.3092784 19.176378 20.5154639 18.8645669L26.8556701 10.4976378C27.1391753 10.0559055 27.0103093 9.45826772 26.5721649 9.17244094zM28.8917526 19.5141732C28.6340206 19.0464567 28.0412371 18.8905512 27.5773196 19.1503937L22.9381443 21.0992126C22.4742268 21.3590551 22.3195876 21.9566929 22.5773196 22.4244094 22.757732 22.7362205 23.0670103 22.9181102 23.4020619 22.9181102 23.556701 22.9181102 23.7113402 22.8661417 23.8659794 22.788189L28.5051546 20.8393701C28.9948454 20.5535433 29.1752577 19.9818898 28.8917526 19.5141732z"/></g><path fill="#505452" d="M16.9329897 45.3425197L9.3556701 45.3425197C8.1443299 45.3425197 7.5257732 44.8488189 7.5257732 43.8874016 7.5257732 43.8874016 7.26804124 40.8732283 7.26804124 32.688189 7.26804124 30.011811 7.29381443 27.7511811 7.31958763 25.9582677 12.9896907 25.5165354 13.0154639 20.5795276 13.0154639 16.5519685 13.0154639 12.3425197 13.0154639 7.11968504 6.49484536 7.11968504 0 7.11968504 0 12.3425197 0 16.5519685 0 20.4755906 0 25.3086614 5.30927835 25.9062992 5.28350515 27.7511811 5.23195876 30.011811 5.23195876 32.688189 5.23195876 40.6133858 5.48969072 43.8874016 5.48969072 43.8874016 5.48969072 46.0181102 7.01030928 47.3952756 9.3556701 47.3952756L16.9329897 47.3952756C17.5 47.3952756 17.9381443 46.9275591 17.9381443 46.3818898 17.9381443 45.8102362 17.5 45.3425197 16.9329897 45.3425197zM2.03608247 16.5519685C2.03608247 11.0173228 2.68041237 9.17244094 6.52061856 9.17244094 10.3608247 9.17244094 11.0051546 11.0173228 11.0051546 16.5519685 11.0051546 21.6448819 10.4639175 23.619685 7.39690722 23.9055118 7.4742268 21.5409449 7.5257732 20.319685 7.5257732 20.319685 7.5257732 19.7480315 7.06185567 19.3062992 6.52061856 19.3062992 5.95360825 19.3062992 5.51546392 19.7740157 5.51546392 20.319685 5.51546392 20.319685 5.43814433 21.5409449 5.38659794 23.8535433 2.55154639 23.4897638 2.03608247 21.4889764 2.03608247 16.5519685zM34.1752577 26.0102362L41.2371134 26.0102362 41.314433 26.0102362 41.3659794 26.0102362 41.3659794 26.0102362C41.4175258 26.0102362 41.4948454 25.984252 41.5463918 25.9582677 42.0360825 25.880315 42.4226804 25.4645669 42.4226804 24.9448819 42.4226804 24.3732283 41.9587629 23.9314961 41.4175258 23.9314961L35.0515464 23.9314961C34.4845361 23.9314961 34.0463918 23.8275591 33.7371134 23.619685 33.4278351 23.3598425 33.2474227 22.996063 33.2474227 22.5543307 33.2474227 22.5543307 33.0154639 20.0598425 33.0154639 16.7598425 33.0154639 13.4858268 33.2474227 11.0433071 33.2474227 11.0433071 33.2474227 10.5755906 33.4793814 10.1858268 33.814433 9.92598425 34.0979381 9.74409449 34.5103093 9.64015748 35.0257732 9.64015748L41.2886598 9.64015748 41.314433 9.64015748 41.4175258 9.64015748C41.9845361 9.64015748 42.4226804 9.17244094 42.4226804 8.62677165 42.4226804 8.10708661 42.0103093 7.66535433 41.5206186 7.61338583 41.443299 7.58740157 41.3659794 7.58740157 41.2886598 7.58740157L34.2525773 7.58740157C32.7061856 7.58740157 31.185567 9.12047244 31.185567 10.6535433 31.185567 10.6535433 30.9278351 13.407874 30.9278351 16.7598425 30.9278351 20.111811 31.1340206 22.9181102 31.1340206 22.9181102 31.1340206 24.9188976 32.9381443 26.0102362 34.1752577 26.0102362zM21.9845361 26.0102362C28.5051546 26.0102362 28.5051546 20.7874016 28.5051546 16.5779528L28.5051546 8.49685039C28.5051546 8.26299213 28.4793814 7.48346457 27.5 7.48346457 26.5206186 7.48346457 26.4690722 8.39291339 26.4690722 8.52283465L26.4690722 16.5779528C26.4690722 22.1125984 25.8247423 23.9574803 21.9845361 23.9574803 18.1443299 23.9574803 17.5 22.1125984 17.5 16.5779528L17.5 8.5488189C17.5 8.05511811 17.2164948 7.48346457 16.4690722 7.48346457 15.7216495 7.48346457 15.4639175 8.05511811 15.4639175 8.52283465L15.4639175 16.603937C15.4639175 20.7874016 15.4639175 26.0102362 21.9845361 26.0102362z"/><path fill="#505452" d="M64.8195876 7.50944882C58.2989691 7.50944882 58.2989691 12.7322835 58.2989691 16.9417323 58.2989691 17.0456693 58.2731959 22.5283465 58.2731959 22.5283465 58.2731959 22.9440945 58.0670103 23.3338583 57.7835052 23.5937008 57.4742268 23.8015748 57.0360825 23.9055118 56.4690722 23.9055118L48.9690722 23.9574803C48.4020619 23.9574803 47.9639175 23.8535433 47.6546392 23.6456693 47.3453608 23.3858268 47.1649485 23.0220472 47.1649485 22.580315 47.1649485 22.580315 46.9845361 20.6055118 46.9329897 17.8511811L52.0618557 17.8511811C52.628866 17.8511811 53.0670103 17.3834646 53.0670103 16.8377953 53.0670103 16.2661417 52.6030928 15.8244094 52.0618557 15.8244094L46.9587629 15.8244094C46.9845361 13.0440945 47.1907216 11.0952756 47.1907216 11.0952756 47.1907216 10.6275591 47.4226804 10.2377953 47.757732 9.97795276 48.0412371 9.79606299 48.4536082 9.69212598 48.9690722 9.69212598L55.2319588 9.69212598 55.257732 9.69212598 55.3608247 9.69212598C55.9278351 9.69212598 56.3659794 9.22440945 56.3659794 8.67874016 56.3659794 8.15905512 55.9536082 7.71732283 55.4639175 7.66535433 55.3865979 7.63937008 55.3092784 7.63937008 55.2319588 7.63937008L48.1958763 7.63937008C46.6494845 7.63937008 45.128866 9.17244094 45.128866 10.7055118 45.128866 10.7055118 44.9226804 12.9401575 44.8969072 15.8244094L36.7010309 15.8244094C36.1340206 15.8244094 35.6958763 16.292126 35.6958763 16.8377953 35.6958763 17.4094488 36.1597938 17.8511811 36.7010309 17.8511811L44.8969072 17.8511811C44.9226804 20.7094488 45.1030928 22.9440945 45.1030928 22.9440945 45.1030928 24.9448819 46.9072165 26.0362205 48.1443299 26.0362205L57.371134 25.984252C58.6082474 25.984252 60.4123711 24.8929134 60.4123711 22.892126L60.3608247 18.8385827 60.3608247 16.9417323C60.3608247 11.4070866 61.0051546 9.56220472 64.8453608 9.56220472 68.685567 9.56220472 69.3298969 11.4070866 69.3298969 16.9417323L69.3298969 24.9708661C69.3298969 25.4645669 69.6134021 26.0362205 70.3608247 26.0362205 71.1082474 26.0362205 71.3659794 25.4645669 71.3659794 25.0228346L71.3659794 16.9417323C71.3402062 12.7322835 71.3402062 7.50944882 64.8195876 7.50944882zM71.7525773.12992126C71.185567.12992126 70.7474227.597637795 70.7474227 1.14330709L70.7474227 3.84566929C70.7474227 4.41732283 71.2113402 4.85905512 71.7525773 4.85905512 72.3195876 4.85905512 72.757732 4.39133858 72.757732 3.84566929L72.757732 1.14330709C72.7835052.571653543 72.3195876.12992126 71.7525773.12992126zM80.7989691 15.8244094L78.3762887 15.8244094C76.5721649 15.7204724 75.6185567 14.2393701 75.6185567 12.6023622 75.6185567 10.8874016 76.9845361 9.64015748 78.4793814 9.64015748L83.5309278 9.64015748C83.7628866 9.64015748 83.9690722 9.56220472 84.1494845 9.40629921 84.3298969 9.2503937 84.4329897 8.91259843 84.4329897 8.65275591 84.4329897 8.39291339 84.3298969 8.08110236 84.1752577 7.92519685 83.9948454 7.74330709 83.7886598 7.66535433 83.556701 7.66535433L78.8659794 7.66535433C76.0309278 7.66535433 73.6597938 9.35433071 73.6597938 12.7062992 73.6597938 16.0582677 75.4896907 17.7992126 78.4793814 17.7992126L80.9020619 17.7992126C82.7061856 17.9031496 83.6597938 19.4362205 83.6597938 21.0732283 83.6597938 22.788189 82.2938144 24.0094488 80.7989691 24.0094488L74.7938144 24.0094488C74.2525773 24.0094488 73.8659794 24.4251969 73.8659794 25.0748031 73.8659794 25.7244094 74.3814433 26.088189 74.7938144 26.088189L80.4381443 26.088189C83.2731959 26.088189 85.6443299 24.3992126 85.6443299 21.0472441 85.6443299 17.6952756 83.7886598 15.8244094 80.7989691 15.8244094zM40.8505155 37.0535433C41.5463918 36.4299213 41.8556701 35.0787402 41.8556701 33.623622 41.8556701 33.4417323 41.8556701 33.4937008 41.8298969 33.311811 41.5979381 30.323622 39.7680412 28.8165354 37.1649485 28.8165354L34.3041237 28.8165354C32.757732 28.8165354 31.314433 29.907874 31.314433 31.8826772 31.314433 31.8826772 31.0051546 36.6897638 31.2371134 38.4047244 31.314433 39.0023622 31.8814433 39.2102362 32.3453608 39.2102362 32.8092784 39.2102362 33.2989691 38.8724409 33.2989691 38.4047244 33.2989691 37.9110236 33.2216495 33.519685 33.3762887 32.2464567 33.5051546 31.3370079 33.9948454 30.8692913 34.742268 30.8692913L37.3453608 30.8173228C38.685567 30.8173228 39.6907216 31.8307087 39.9226804 33.2858268 39.9484536 33.4417323 39.9484536 33.5456693 39.9484536 33.5716535 39.9484536 34.3511811 39.8195876 35.1047244 39.4845361 35.7023622 39.0721649 36.4299213 38.0154639 36.403937 37.5773196 36.5858268 37.5515464 36.5858268 37.5515464 36.5858268 37.5257732 36.611811 37.5 36.611811 37.4484536 36.6377953 37.4226804 36.6637795 37.3969072 36.6637795 37.371134 36.6897638 37.3453608 36.6897638 37.3195876 36.6897638 37.2938144 36.715748 37.2938144 36.715748 37.1907216 36.7937008 37.0876289 36.8716535 37.0360825 36.9755906L37.0103093 37.0015748 37.0103093 37.0015748C36.9072165 37.1574803 36.8556701 37.3393701 36.8556701 37.5472441 36.8556701 38.1188976 37.3195876 38.5606299 37.8608247 38.5606299L38.9175258 38.6905512C40.6185567 38.8464567 41.5206186 40.3275591 41.5206186 41.9385827 41.5206186 43.6535433 40.6701031 45.3165354 38.7371134 45.3165354L29.8969072 45.2645669C29.4845361 45.2645669 29.0979381 45.0566929 28.8402062 44.7708661 28.6340206 44.4590551 28.5309278 44.0173228 28.5309278 43.4456693L28.5309278 39.911811 28.5309278 39.8598425 28.5309278 38.0669291C28.5309278 33.8574803 28.5309278 28.6346457 22.0103093 28.6346457 15.4639175 28.6866142 15.4639175 33.9094488 15.4639175 38.1188976L15.4639175 41.9905512C15.4639175 42.2503937 15.5412371 43.211811 16.5463918 43.211811 17.5257732 43.211811 17.5 42.276378 17.5 41.9905512L17.5 38.1188976C17.5 32.584252 18.1443299 30.7393701 21.9845361 30.7393701 25.5670103 30.7393701 26.3659794 32.3503937 26.4690722 37.0535433L26.4175258 37.0535433 21.1597938 37.0535433C20.5927835 37.0535433 20.1546392 37.5212598 20.1546392 38.0669291 20.1546392 38.6385827 20.6185567 39.080315 21.1597938 39.080315L26.3917526 39.080315 26.443299 39.080315C26.443299 41.8086614 26.4175258 44.3811024 26.4175258 44.3811024 26.4175258 45.6283465 27.5 47.4472441 29.4845361 47.4472441L33.5051546 47.4212598C33.5051546 47.4212598 33.5051546 47.4212598 33.5051546 47.3952756L38.3505155 47.3692913C41.8814433 47.3692913 43.556701 45.2385827 43.556701 41.8866142 43.5824742 39.3141732 42.5 37.8330709 40.8505155 37.0535433z"/><g fill="#6CB644" transform="translate(39.175 37.417)"><path d="M6.31443299 28.2708661C5.67010309 28.5047244 5.05154639 28.5826772 4.48453608 28.5566929 3.91752577 28.5047244 3.37628866 28.3748031 2.88659794 28.1409449 2.39690722 27.9070866 1.93298969 27.5952756 1.54639175 27.2314961 1.15979381 26.8417323.798969072 26.4259843.515463918 25.9582677.180412371 24.9448819.0257731959 24.0094488.0773195876 23.1.128865979 22.2165354.283505155 21.3590551.541237113 20.5535433.798969072 19.7480315 1.13402062 18.9944882 1.54639175 18.2669291 1.93298969 17.5393701 2.31958763 16.8377953 2.70618557 16.1622047 2.80927835 16.188189 2.91237113 16.1622047 2.96391753 16.1102362 3.01546392 16.0582677 3.06701031 15.980315 3.1185567 15.9023622 3.1443299 15.8244094 3.19587629 15.7204724 3.24742268 15.6425197 3.29896907 15.5645669 3.37628866 15.4866142 3.45360825 15.4346457 3.47938144 15.2787402 3.53092784 15.1488189 3.63402062 15.0448819 3.71134021 14.9409449 3.81443299 14.8370079 3.89175258 14.7070866 3.99484536 14.6031496 4.07216495 14.4992126 4.14948454 14.3692913 4.22680412 14.2653543 4.30412371 14.1354331 4.32989691 13.9795276 4.48453608 13.9275591 4.58762887 13.8496063 4.69072165 13.7456693 4.79381443 13.6417323 4.87113402 13.5377953 4.94845361 13.4338583 5.0257732 13.3299213 5.10309278 13.2259843 5.20618557 13.1220472 5.30927835 13.0181102 5.41237113 12.9401575 5.56701031 12.8622047L5.51546392 12.576378C5.82474227 12.3685039 6.03092784 12.1346457 6.13402062 11.9267717 6.2371134 11.7188976 6.39175258 11.4330709 6.54639175 11.0952756 6.70103093 11.0433071 6.82989691 11.0173228 6.93298969 10.9913386 7.03608247 10.9653543 7.19072165 10.9133858 7.39690722 10.8614173 7.4742268 10.5755906 7.57731959 10.3677165 7.68041237 10.211811 7.78350515 10.0559055 7.91237113 9.9 8.1185567 9.69212598 8.37628866 9.77007874 8.63402062 9.79606299 8.89175258 9.77007874 9.14948454 9.74409449 9.40721649 9.82204724 9.66494845 9.97795276 9.71649485 10.1598425 9.79381443 10.2897638 9.89690722 10.3677165 10 10.4456693 10.128866 10.523622 10.257732 10.5755906 10.3865979 10.6275591 10.5154639 10.7055118 10.6185567 10.7834646 10.7474227 10.8614173 10.8247423 10.9653543 10.9020619 11.1212598 10.9793814 11.0952756 11.0309278 11.0692913 11.0309278 11.0433071 11.056701 11.0173228 11.0824742 10.9913386 11.185567 10.9913386 11.2371134 11.0952756 11.2886598 11.1992126 11.3402062 11.2771654 11.3917526 11.3551181 11.443299 11.4070866 11.4948454 11.4590551 11.5463918 11.5110236 11.5979381 11.5629921 11.6494845 11.6409449 11.7010309 11.7188976 11.7525773 11.7968504 11.8041237 11.9007874 11.7525773 12.1086614 11.7268041 12.3165354 11.7268041 12.5244094 11.7010309 12.7322835 11.6237113 12.9141732 11.443299 13.0181102 11.4690722 13.1480315 11.5206186 13.2 11.6237113 13.1740157 11.7268041 13.1740157 11.7783505 13.2 11.8298969 13.303937 11.8814433 13.4338583 11.8814433 13.5637795 11.8298969 13.6677165 12.3969072 14.2913386 12.9381443 14.9669291 13.4278351 15.6944882 13.943299 16.4220472 14.4845361 17.0716535 15.0515464 17.7212598 15.0515464 17.9291339 15.128866 18.1370079 15.2061856 18.3448819 15.3092784 18.5527559 15.4123711 18.7346457 15.5412371 18.9165354 15.6701031 19.0984252 15.7731959 19.280315 15.9020619 19.4622047 16.0051546 19.6440945 16.1082474 19.8259843 16.185567 20.0338583 16.2628866 20.2937008 16.314433 20.5535433 16.3402062 20.8653543 16.3659794 21.1771654 16.3659794 21.4629921 16.3402062 21.7488189 16.314433 22.0346457 16.2371134 22.3204724 16.1340206 22.580315 16.0309278 22.8401575 15.9020619 23.0740157 15.7216495 23.2299213 15.5412371 23.5937008 15.2835052 23.9055118 14.9742268 24.1653543 14.6391753 24.4251969 14.3556701 24.7110236 14.0979381 25.0488189 13.9175258 25.2047244 13.7113402 25.3606299 13.4793814 25.4385827 13.2474227 25.5425197 13.0154639 25.6464567 12.757732 25.7503937 12.5773196 25.9062992 12.371134 26.088189 12.1134021 26.2440945 11.8556701 26.4259843 11.5979381 26.5818898 11.3402062 26.711811 11.0824742 26.8417323 10.7989691 26.9976378 10.5154639 27.1015748 10.2319588 27.2055118 9.9742268 27.2834646 9.74226804 27.2834646 9.22680412 27.5952756 8.7371134 27.8291339 8.24742268 28.0110236 7.65463918 28.2188976 7.03608247 28.2968504 6.31443299 28.2708661zM4.94845361 19.903937C4.87113402 20.2937008 4.74226804 20.6314961 4.61340206 20.9692913 4.45876289 21.2811024 4.32989691 21.6188976 4.17525773 21.9566929 4.04639175 22.2944882 3.91752577 22.6322835 3.84020619 22.996063 3.7628866 23.3598425 3.7628866 23.7496063 3.84020619 24.1913386 4.20103093 24.3992126 4.58762887 24.4771654 5 24.4511811 5.43814433 24.4251969 5.85051546 24.3472441 6.28865979 24.2173228 6.72680412 24.0874016 7.13917526 23.9574803 7.57731959 23.7755906 7.98969072 23.619685 8.37628866 23.4897638 8.7371134 23.411811 8.71134021 23.2818898 8.7628866 23.203937 8.86597938 23.1779528 9.48453608 22.996063 10.0515464 22.684252 10.5412371 22.2685039 11.0309278 21.8527559 11.5463918 21.4370079 12.0618557 21.0212598 12.1134021 20.8133858 12.1649485 20.6314961 12.2680412 20.4755906 12.371134 20.319685 12.3969072 20.111811 12.3453608 19.8259843 12.242268 19.696063 12.1649485 19.592126 12.1391753 19.5141732 12.1134021 19.4362205 12.0618557 19.280315 12.0103093 19.0984252 11.4948454 18.6307087 11.056701 18.1110236 10.6185567 17.5133858 10.2061856 16.915748 9.74226804 16.3700787 9.25257732 15.876378 9.22680412 15.9543307 9.20103093 16.0582677 9.12371134 16.1362205 9.04639175 16.2401575 8.94329897 16.2401575 8.81443299 16.1622047 8.78865979 16.3181102 8.7628866 16.4480315 8.65979381 16.5 8.58247423 16.5779528 8.47938144 16.6299213 8.37628866 16.6299213 8.27319588 16.6559055 8.1443299 16.6559055 8.01546392 16.6299213 7.88659794 16.603937 7.78350515 16.5779528 7.68041237 16.5 7.24226804 17.0456693 6.80412371 17.5653543 6.34020619 18.0590551 5.90206186 18.5527559 5.51546392 19.1244094 5.20618557 19.7480315 5.12886598 19.8 5.10309278 19.8259843 5.07731959 19.8259843 5.07731959 19.8259843 5.0257732 19.8519685 4.94845361 19.903937zM17.3969072 19.2283465C17.3969072 19.176378 17.4226804 19.1244094 17.4742268 19.1244094 17.5257732 19.1244094 17.5773196 19.0984252 17.628866 19.0724409 17.4742268 18.9685039 17.371134 18.8385827 17.2938144 18.6307087 17.2164948 18.4228346 17.1134021 18.2669291 16.9587629 18.1629921 16.9845361 18.0850394 16.9845361 18.0070866 16.9845361 17.9291339 16.9845361 17.8511811 17.0618557 17.7992126 17.1649485 17.7992126 17.0618557 17.4614173 17.0103093 17.1496063 17.0103093 16.8637795 17.0103093 16.5519685 17.0618557 16.2661417 17.1391753 15.980315 17.2164948 15.6944882 17.3195876 15.4086614 17.4484536 15.1228346 17.5773196 14.8370079 17.6804124 14.5511811 17.8092784 14.2653543 17.9381443 14.2133858 18.0154639 14.2133858 18.0670103 14.2393701 18.1185567 14.2913386 18.1701031 14.2653543 18.2216495 14.1614173 18.4278351 13.9535433 18.556701 13.719685 18.6082474 13.511811 18.6597938 13.2779528 18.6597938 13.0440945 18.6082474 12.8102362 18.6597938 12.3944882 18.7371134 11.9527559 18.8402062 11.5370079 18.943299 11.1212598 19.0721649 10.7055118 19.2268041 10.315748 19.3814433 9.92598425 19.5618557 9.58818898 19.7680412 9.27637795 19.9742268 8.96456693 20.2061856 8.73070866 20.4896907 8.52283465 20.6701031 8.28897638 20.9020619 8.08110236 21.185567 7.84724409 21.4690722 7.63937008 21.8041237 7.43149606 22.1649485 7.27559055 22.5257732 7.11968504 22.8865979 6.98976378 23.2731959 6.91181102 23.6597938 6.83385827 24.0463918 6.78188976 24.3814433 6.80787402 24.4587629 6.83385827 24.5103093 6.78188976 24.5103093 6.72992126 24.5103093 6.6519685 24.5360825 6.62598425 24.6134021 6.6 25.3865979 6.5480315 26.1082474 6.5480315 26.7268041 6.6519685 27.371134 6.75590551 27.9381443 6.93779528 28.4278351 7.22362205 28.814433 7.61338583 29.1752577 8.05511811 29.5360825 8.52283465 29.8969072 8.99055118 30.2061856 9.51023622 30.4639175 10.0559055 30.7216495 10.6015748 30.9020619 11.1732283 31.0051546 11.7968504 31.1082474 12.4204724 31.1082474 13.0440945 30.9793814 13.6937008 30.5927835 14.4732283 30.0515464 15.1488189 29.3814433 15.6944882 28.7113402 16.2401575 27.9639175 16.7598425 27.1391753 17.2015748 26.314433 17.6433071 25.4639175 18.0330709 24.5618557 18.3968504 23.6597938 18.7606299 22.8092784 19.1244094 21.9587629 19.488189 22.0618557 19.903937 22.1391753 20.3456693 22.2164948 20.8133858 22.2938144 21.2811024 22.3453608 21.7488189 22.3453608 22.2425197 22.3453608 22.7362205 22.3195876 23.203937 22.242268 23.6716535 22.1649485 24.1393701 22.0360825 24.6070866 21.8298969 25.0488189 21.5206186 25.1007874 21.2113402 25.1787402 20.9020619 25.3346457 20.5927835 25.4645669 20.3092784 25.6204724 20.0773196 25.7503937 19.9484536 25.6984252 19.8195876 25.6464567 19.6907216 25.5944882 19.5618557 25.5425197 19.4072165 25.5425197 19.2525773 25.5425197 19.2525773 25.3606299 19.1752577 25.1787402 19.0206186 24.9968504 18.8402062 24.8149606 18.685567 24.6590551 18.5309278 24.5031496 18.3762887 24.3472441 18.2474227 24.1653543 18.1701031 23.9834646 18.0927835 23.8015748 18.1443299 23.619685 18.3247423 23.411811 18.1701031 23.3338583 18.0927835 23.1779528 18.0412371 22.9440945 18.1185567 22.996063 18.1958763 22.996063 18.2989691 22.996063 18.2216495 22.7362205 18.1701031 22.3984252 18.1958763 21.9826772 18.2216495 21.5929134 18.2216495 21.1771654 18.2216495 20.7874016 18.2216495 20.3976378 18.1701031 20.0598425 18.0412371 19.7480315 17.9639175 19.488189 17.7319588 19.3062992 17.3969072 19.2283465zM22.2164948 12.680315C22.1907216 12.8622047 22.1649485 13.0181102 22.1649485 13.1480315 22.1649485 13.2779528 22.1391753 13.407874 22.1134021 13.5377953 22.0876289 13.6417323 22.0618557 13.7716535 22.0360825 13.8755906 22.0103093 14.0055118 21.9845361 14.1354331 21.9329897 14.2653543 21.9845361 14.3433071 22.0618557 14.3952756 22.1649485 14.4472441 22.2680412 14.4732283 22.3453608 14.5251969 22.3969072 14.6291339 22.5773196 14.4732283 22.7835052 14.3692913 22.9896907 14.2653543 23.1958763 14.1614173 23.4020619 14.0834646 23.6082474 14.0055118 23.814433 13.9275591 24.0206186 13.8496063 24.2268041 13.7716535 24.4329897 13.6937008 24.6391753 13.5637795 24.8453608 13.407874 25.0515464 13.2519685 25.2835052 13.1220472 25.5154639 12.992126 25.7474227 12.8622047 25.9793814 12.7582677 26.2113402 12.6283465 26.443299 12.4984252 26.6494845 12.3685039 26.8556701 12.2125984 27.0618557 12.0566929 27.242268 11.9007874 27.371134 11.6929134 27.1134021 11.5370079 26.7783505 11.4330709 26.314433 11.3551181 25.8505155 11.2771654 25.3865979 11.2771654 24.8969072 11.3551181 24.4072165 11.4070866 23.9175258 11.5629921 23.4536082 11.7448819 22.9123711 11.9527559 22.5257732 12.2645669 22.2164948 12.680315zM33.6340206 21.8267717C33.4793814 21.7228346 33.3762887 21.5929134 33.2989691 21.4370079 33.2216495 21.2811024 33.0670103 21.1771654 32.8350515 21.0992126 32.757732 20.8653543 32.6546392 20.6314961 32.5515464 20.3456693 32.4484536 20.0598425 32.3195876 19.7740157 32.2164948 19.4622047 32.1134021 19.1503937 32.0103093 18.8645669 31.9072165 18.5527559 31.8298969 18.2409449 31.7783505 17.9551181 31.7783505 17.6952756 31.7783505 17.5393701 31.8041237 17.4094488 31.8556701 17.2795276 31.9072165 17.1496063 31.9329897 17.019685 31.9845361 16.8897638 32.0360825 16.7598425 32.0618557 16.6299213 32.0618557 16.5 32.0876289 16.3700787 32.0618557 16.2401575 32.0103093 16.1362205 32.0876289 16.1102362 32.1391753 16.0322835 32.1391753 15.9543307 32.1391753 15.876378 32.2164948 15.8244094 32.3453608 15.8244094 32.3969072 15.4606299 32.4226804 15.1228346 32.5 14.8110236 32.5515464 14.4992126 32.628866 14.1874016 32.7061856 13.8755906 32.7835052 13.5637795 32.8608247 13.2779528 32.9639175 12.9661417 33.0412371 12.6543307 33.1185567 12.3165354 33.1701031 11.9267717 32.8608247 11.7448819 32.628866 11.5110236 32.4484536 11.2511811 32.2680412 10.9913386 32.1391753 10.7314961 32.0103093 10.4456693 31.8814433 10.1598425 31.7783505 9.87401575 31.7010309 9.58818898 31.6237113 9.3023622 31.4948454 9.01653543 31.3402062 8.73070866 31.4690722 8.41889764 31.6494845 8.15905512 31.8556701 7.92519685 32.0876289 7.69133858 32.3453608 7.48346457 32.628866 7.32755906 32.9123711 7.14566929 33.2474227 6.98976378 33.5824742 6.85984252 33.943299 6.72992126 34.3041237 6.5480315 34.6907216 6.39212598 35.3608247 6.02834646 35.9793814 5.71653543 36.5463918 5.45669291 37.0876289 5.22283465 37.628866 4.98897638 38.1701031 4.80708661 38.685567 4.62519685 39.2525773 4.41732283 39.8195876 4.23543307 40.3865979 4.05354331 41.056701 3.79370079 41.8041237 3.50787402 41.8298969 3.55984252 41.8556701 3.55984252 41.9072165 3.55984252 41.9329897 3.55984252 41.9845361 3.53385827 42.0618557 3.53385827 42.1391753 3.63779528 42.2164948 3.66377953 42.3453608 3.63779528 42.3453608 3.58582677 42.3195876 3.55984252 42.3195876 3.50787402 42.2938144 3.48188976 42.2938144 3.42992126 42.2938144 3.40393701L42.4226804 3.40393701C42.4742268 3.40393701 42.5257732 3.40393701 42.5773196 3.42992126 42.628866 3.42992126 42.6546392 3.42992126 42.6804124 3.40393701 42.7061856 3.37795276 42.7061856 3.32598425 42.6804124 3.2480315 42.9381443 3.53385827 43.2216495 3.74173228 43.5309278 3.8976378 43.8659794 4.05354331 44.2010309 4.15748031 44.5876289 4.23543307 44.6391753 4.36535433 44.6649485 4.46929134 44.6649485 4.52125984L44.6649485 4.70314961C44.6649485 4.75511811 44.6649485 4.83307087 44.6907216 4.88503937 44.7164948 4.96299213 44.742268 5.04094488 44.7938144 5.17086614 44.6391753 5.63858268 44.4329897 6.0023622 44.1494845 6.28818898 43.8917526 6.57401575 43.5824742 6.83385827 43.2731959 7.01574803 42.9381443 7.1976378 42.6030928 7.37952756 42.2164948 7.50944882 41.8298969 7.63937008 41.4690722 7.79527559 41.0824742 7.9511811 40.6958763 8.10708661 40.3092784 8.28897638 39.9226804 8.47086614 39.5360825 8.67874016 39.1752577 8.93858268 38.8402062 9.27637795 38.7113402 9.2503937 38.6082474 9.2503937 38.5051546 9.27637795 38.4020619 9.3023622 38.2989691 9.35433071 38.2216495 9.40629921 38.1185567 9.45826772 38.0154639 9.51023622 37.8865979 9.56220472 37.757732 9.61417323 37.6030928 9.64015748 37.4226804 9.66614173 37.3195876 9.79606299 37.1907216 9.9 37.0360825 9.97795276 36.8814433 10.0559055 36.7268041 10.1338583 36.5721649 10.211811 36.6752577 10.3677165 36.7525773 10.523622 36.7783505 10.7055118 36.8041237 10.8874016 36.8556701 11.0173228 36.9329897 11.1212598 37.5773196 11.0433071 38.2731959 10.9133858 39.0463918 10.6795276 39.7938144 10.4456693 40.5412371 10.2637795 41.2886598 10.0818898 41.314433 10.1598425 41.314433 10.211811 41.2886598 10.2377953 41.2628866 10.2637795 41.2628866 10.3417323 41.2628866 10.419685 41.4175258 10.4716535 41.5721649 10.5755906 41.7268041 10.6795276 41.8814433 10.7834646 42.0360825 10.9133858 42.1907216 10.9913386 42.3453608 11.0952756 42.5 11.1732283 42.6546392 11.2251969 42.8092784 11.2771654 42.9639175 11.2771654 43.1443299 11.2251969 43.2474227 11.3551181 43.3247423 11.5110236 43.4020619 11.6669291 43.4536082 11.8228346 43.4793814 12.0047244 43.4278351 12.2125984 43.1701031 12.4724409 42.9123711 12.7322835 42.6546392 12.992126 42.3969072 13.2519685 42.1391753 13.511811 41.8814433 13.7456693 41.5979381 13.9795276 41.2886598 14.1874016 40.9536082 14.3692913 40.6185567 14.5511811 40.2319588 14.6811024 39.7938144 14.7330709 39.7164948 14.7590551 39.6649485 14.7590551 39.6134021 14.7850394 39.5618557 14.7850394 39.4845361 14.7850394 39.4072165 14.7330709 39.2783505 14.8370079 39.0721649 14.9149606 38.814433 14.9409449 38.556701 14.9669291 38.3505155 15.0448819 38.1958763 15.1488189 37.9639175 15.1228346 37.7061856 15.1228346 37.4226804 15.1748031 37.1391753 15.2267717 36.8814433 15.2527559 36.6494845 15.2007874 36.443299 15.6425197 36.2886598 16.1102362 36.1340206 16.603937 35.9793814 17.0976378 35.8505155 17.5913386 35.7731959 18.1110236 36.4175258 18.0850394 36.9329897 18.0070866 37.3453608 17.9031496 37.757732 17.7992126 38.1185567 17.6952756 38.4793814 17.5653543 38.8402062 17.4354331 39.2010309 17.3314961 39.5876289 17.2015748 39.9742268 17.0716535 40.4381443 16.9677165 41.0051546 16.8637795 41.3402062 16.603937 41.7525773 16.396063 42.242268 16.2141732 42.7319588 16.0582677 43.1701031 15.8503937 43.556701 15.6165354 43.7113402 15.6425197 43.8659794 15.6944882 43.9948454 15.7984252 44.1237113 15.9023622 44.2525773 16.0062992 44.3814433 16.1362205 44.5103093 16.2401575 44.6391753 16.3440945 44.742268 16.396063 44.871134 16.4740157 45 16.4740157 45.1804124 16.396063 45.2835052 16.4480315 45.3350515 16.5519685 45.3865979 16.6299213 45.4381443 16.7338583 45.4639175 16.8377953 45.5154639 16.915748 45.5670103 16.9937008 45.5927835 17.0716535 45.6701031 17.123622 45.7216495 17.1755906 45.8247423 17.1755906 45.9278351 17.123622 45.7474227 17.7732283 45.5154639 18.2929134 45.2319588 18.6826772 44.9484536 19.0724409 44.5876289 19.4102362 44.1752577 19.6700787 43.7628866 19.9299213 43.2989691 20.1637795 42.757732 20.3716535 42.2164948 20.5795276 41.6237113 20.7874016 40.9793814 21.0472441 40.8247423 21.0992126 40.6701031 21.1251969 40.5670103 21.1251969 40.4381443 21.0992126 40.3350515 21.1251969 40.2061856 21.1511811 39.7938144 21.3070866 39.3041237 21.4889764 38.7371134 21.6968504 38.1701031 21.8787402 37.5773196 22.0346457 36.9845361 22.1385827 36.3917526 22.2425197 35.7989691 22.2944882 35.2319588 22.2425197 34.6649485 22.1905512 34.0721649 22.1125984 33.6340206 21.8267717zM50.7731959 16.9417323C50.6443299 17.0976378 50.5927835 17.2795276 50.5927835 17.4614173L50.5927835 18.0330709C50.5927835 18.2149606 50.5412371 18.3968504 50.4381443 18.5527559 50.3608247 18.7086614 50.1546392 18.8125984 49.871134 18.8385827 49.8195876 18.9165354 49.8195876 18.9685039 49.871134 18.9944882 49.9226804 18.9944882 49.9484536 19.0724409 50.0257732 19.176378 49.8195876 19.176378 49.6649485 19.2283465 49.5876289 19.3062992 49.5103093 19.384252 49.4072165 19.4622047 49.2783505 19.5141732 48.9175258 19.488189 48.5824742 19.3322835 48.2989691 19.0984252 48.0154639 18.8645669 47.7319588 18.6047244 47.5 18.2929134 47.2680412 17.9811024 47.0360825 17.6692913 46.8298969 17.3574803 46.6237113 17.0456693 46.443299 16.7598425 46.2628866 16.5259843 46.2628866 16.4740157 46.2628866 16.4220472 46.314433 16.4220472 46.3659794 16.4220472 46.4175258 16.4220472 46.4690722 16.396063 46.3659794 16.2661417 46.2628866 16.1102362 46.185567 15.9283465 46.1082474 15.7464567 46.0051546 15.6165354 45.8762887 15.5125984 46.1340206 14.4732283 46.3917526 13.3818898 46.7010309 12.2645669 46.9845361 11.1212598 47.2938144 9.97795276 47.5773196 8.83464567 47.8608247 7.66535433 48.1701031 6.49606299 48.4536082 5.32677165 48.7371134 4.15748031 49.0206186 2.98818898 49.2783505 1.87086614 49.742268 1.9488189 50.1804124 2.02677165 50.6185567 2.15669291 51.056701 2.28661417 51.4690722 2.44251969 51.8556701 2.6503937 52.242268 2.85826772 52.5773196 3.11811024 52.8865979 3.42992126 53.1958763 3.74173228 53.4278351 4.10551181 53.6082474 4.54724409 53.6082474 4.6511811 53.556701 4.67716535 53.5051546 4.6511811 53.4536082 4.62519685 53.4278351 4.6511811 53.4020619 4.72913386 53.5051546 4.80708661 53.556701 4.85905512 53.556701 4.91102362 53.5824742 4.93700787 53.5824742 4.98897638 53.556701 5.01496063L53.556701 5.17086614C53.556701 5.22283465 53.6340206 5.3007874 53.7113402 5.40472441 53.6340206 5.40472441 53.5824742 5.43070866 53.556701 5.48267717 53.5309278 5.53464567 53.4793814 5.53464567 53.4020619 5.53464567 53.5309278 5.74251969 53.5824742 5.8984252 53.5824742 6.02834646 53.5824742 6.15826772 53.556701 6.28818898 53.5051546 6.39212598 53.4536082 6.49606299 53.4278351 6.62598425 53.4278351 6.72992126 53.4020619 6.85984252 53.4536082 7.01574803 53.556701 7.1976378 53.5051546 7.1976378 53.4536082 7.22362205 53.4278351 7.2496063 53.4020619 7.27559055 53.4020619 7.3015748 53.3762887 7.35354331 53.3762887 7.37952756 53.3505155 7.40551181 53.3247423 7.45748031 53.2989691 7.48346457 53.2731959 7.50944882 53.1958763 7.48346457 53.3247423 7.87322835 53.4278351 8.26299213 53.4793814 8.67874016 53.556701 9.09448819 53.6082474 9.51023622 53.685567 9.92598425 53.7628866 10.3417323 53.8402062 10.7834646 53.943299 11.2251969 54.0463918 11.6669291 54.2010309 12.1086614 54.4072165 12.5503937 54.9742268 12.0307087 55.4123711 11.4330709 55.6958763 10.7314961 55.9793814 10.0299213 56.1597938 9.3023622 56.2371134 8.49685039 56.314433 7.69133858 56.3402062 6.85984252 56.314433 5.97637795 56.2628866 5.09291339 56.2371134 4.20944882 56.185567 3.27401575 56.314433 3.06614173 56.4175258 2.83228346 56.4690722 2.57244094 56.5206186 2.31259843 56.5463918 2.05275591 56.5721649 1.76692913 56.5979381 1.48110236 56.5979381 1.22125984 56.6237113.935433071 56.6494845.649606299 56.6752577.38976378 56.7525773.155905512 57.0360825.12992126 57.2680412.155905512 57.5.25984252 57.7061856.363779528 57.9123711.467716535 58.1185567.597637795 58.3247423.727559055 58.5309278.831496063 58.7371134.935433071 58.943299 1.03937008 59.2010309 1.09133858 59.4845361 1.06535433 59.7680412 1.32519685 60 1.58503937 60.257732 1.81889764 60.4896907 2.05275591 60.6701031 2.36456693 60.7989691 2.7023622 60.7474227 2.88425197 60.6958763 3.06614173 60.6958763 3.2480315 60.6958763 3.42992126 60.6701031 3.63779528 60.6701031 3.81968504 60.6443299 4.0015748 60.6185567 4.18346457 60.5670103 4.36535433 60.5154639 4.54724409 60.4123711 4.70314961 60.257732 4.83307087 60.3092784 5.3007874 60.3092784 5.74251969 60.3092784 6.15826772 60.3092784 6.57401575 60.2835052 6.98976378 60.2835052 7.37952756 60.2835052 7.76929134 60.2835052 8.18503937 60.3092784 8.6007874 60.3350515 9.01653543 60.3865979 9.48425197 60.5154639 9.9519685 60.4639175 10.419685 60.4123711 10.9133858 60.3350515 11.4070866 60.257732 11.9007874 60.2319588 12.3685039 60.2319588 12.784252 60 13.0700787 59.8195876 13.407874 59.7164948 13.7716535 59.6134021 14.1354331 59.5103093 14.5251969 59.4072165 14.8889764 59.3556701 14.9669291 59.3041237 14.9929134 59.2783505 14.9409449 59.2525773 14.9149606 59.1752577 14.8889764 59.0463918 14.9149606 59.0979381 15.0448819 59.0721649 15.1488189 59.0206186 15.2007874 58.9690722 15.2527559 58.9948454 15.3566929 59.0979381 15.5385827 58.8659794 15.7204724 58.6597938 15.9283465 58.5051546 16.1622047 58.3505155 16.396063 58.1701031 16.6299213 57.9639175 16.8377953 57.757732 17.0456693 57.5 17.2275591 57.2164948 17.3314961 56.9072165 17.4354331 56.4948454 17.4614173 55.9536082 17.3834646 55.1030928 16.9937008 54.3041237 16.4740157 53.5824742 15.876378 52.8608247 15.2787402 52.2164948 14.5251969 51.6752577 13.615748 51.5206186 13.6937008 51.443299 13.823622 51.3917526 13.9795276 51.3402062 14.1354331 51.314433 14.3173228 51.2886598 14.4992126 51.2628866 14.6811024 51.2371134 14.8370079 51.2113402 14.9929134 51.185567 15.1488189 51.1082474 15.2267717 50.9793814 15.2527559 50.9793814 15.4086614 50.9536082 15.5385827 50.8762887 15.6685039 50.8247423 15.7984252 50.7474227 15.9283465 50.6958763 16.0582677 50.6443299 16.188189 50.6185567 16.3181102 50.5927835 16.4740157 50.6185567 16.6299213 50.6701031 16.7858268 50.7731959 16.9417323z"/></g></g></svg>